ffmpeg version 3.4.8-0ubuntu0.2 Copyright (c) 2000-2020 the FFmpeg developers
  built with gcc 7 (Ubuntu 7.5.0-3ubuntu1~18.04)
  configuration: --prefix=/usr --extra-version=0ubuntu0.2 --toolchain=hardened --libdir=/usr/lib/x86_64-linux-gnu --incdir=/usr/include/x86_64-linux-gnu --enable-gpl --disable-stripping --enable-avresample --enable-avisynth --enable-gnutls --enable-ladspa --enable-libass --enable-libbluray --enable-libbs2b --enable-libcaca --enable-libcdio --enable-libflite --enable-libfontconfig --enable-libfreetype --enable-libfribidi --enable-libgme --enable-libgsm --enable-libmp3lame --enable-libmysofa --enable-libopenjpeg --enable-libopenmpt --enable-libopus --enable-libpulse --enable-librubberband --enable-librsvg --enable-libshine --enable-libsnappy --enable-libsoxr --enable-libspeex --enable-libssh --enable-libtheora --enable-libtwolame --enable-libvorbis --enable-libvpx --enable-libwavpack --enable-libwebp --enable-libx265 --enable-libxml2 --enable-libxvid --enable-libzmq --enable-libzvbi --enable-omx --enable-openal --enable-opengl --enable-sdl2 --enable-libdc1394 --enable-libdrm --enable-libiec61883 --enable-chromaprint --enable-frei0r --enable-libopencv --enable-libx264 --enable-shared
  libavutil      55. 78.100 / 55. 78.100
  libavcodec     57.107.100 / 57.107.100
  libavformat    57. 83.100 / 57. 83.100
  libavdevice    57. 10.100 / 57. 10.100
  libavfilter     6.107.100 /  6.107.100
  libavresample   3.  7.  0 /  3.  7.  0
  libswscale      4.  8.100 /  4.  8.100
  libswresample   2.  9.100 /  2.  9.100
  libpostproc    54.  7.100 / 54.  7.100
[rawvideo @ 0x555e4c618a20] Estimating duration from bitrate, this may be inaccurate
Input #0, rawvideo, from '../../SVC-Encoder-20220109T061506Z-001/SVC-Encoder/Dataset/RollerCoaster/ERP_8x8/tile_yuv/Tile_56_480x240.yuv':
  Duration: 00:00:10.00, start: 0.000000, bitrate: 41472 kb/s
    Stream #0:0: Video: rawvideo (I420 / 0x30323449), yuv420p, 480x240, 41472 kb/s, 30 tbr, 30 tbn, 30 tbc
Stream mapping:
  Stream #0:0 -> #0:0 (rawvideo (native) -> h264 (libx264))
Press [q] to stop, [?] for help
[libx264 @ 0x555e4c625c60] using cpu capabilities: MMX2 SSE2Fast LZCNT SSSE3 SSE4.2 AVX
[libx264 @ 0x555e4c625c60] profile High, level 2.1
Output #0, rawvideo, to 'RollerCoaster_Tile_56_480x240_x264_QP_24.h264':
  Metadata:
    encoder         : Lavf57.83.100
    Stream #0:0: Video: h264 (libx264), yuv420p, 480x240, q=-1--1, 30 fps, 30 tbn, 30 tbc
    Metadata:
      encoder         : Lavc57.107.100 libx264
    Side data:
      cpb: bitrate max/min/avg: 0/0/0 buffer size: 0 vbv_delay: -1
frame=  195 fps=0.0 q=30.0 PSNR=Y:nan U:nan V:nan *:nan size=      64kB time=00:00:05.06 bitrate= 103.1kbits/s speed=10.1x    frame=  300 fps=0.0 q=30.0 LPSNR=Y:inf U:inf V:inf *:inf size=     121kB time=00:00:09.93 bitrate= 100.0kbits/s speed=  12x    
video:121kB audio:0kB subtitle:0kB other streams:0kB global headers:0kB muxing overhead: 0.000000%
[libx264 @ 0x555e4c625c60] frame I:2     Avg QP:22.60  size:  9177  PSNR Mean Y:47.81 U:50.41 V:49.05 Avg:48.34 Global:48.30
[libx264 @ 0x555e4c625c60] frame P:76    Avg QP:23.37  size:   913  PSNR Mean Y:46.17 U:49.87 V:48.46 Avg:46.94 Global:46.90
[libx264 @ 0x555e4c625c60] frame B:222   Avg QP:29.42  size:   164  PSNR Mean Y:46.00 U:49.80 V:48.35 Avg:46.79 Global:46.75
[libx264 @ 0x555e4c625c60] consecutive B-frames:  0.7%  1.3%  2.0% 96.0%
[libx264 @ 0x555e4c625c60] mb I  I16..4: 41.9% 35.1% 23.0%
[libx264 @ 0x555e4c625c60] mb P  I16..4:  4.6%  0.6%  0.2%  P16..4: 35.2%  8.2%  3.3%  0.0%  0.0%    skip:47.9%
[libx264 @ 0x555e4c625c60] mb B  I16..4:  0.3%  0.0%  0.0%  B16..8: 27.0%  1.0%  0.0%  direct: 0.0%  skip:71.7%  L0:45.7% L1:53.3% BI: 1.1%
[libx264 @ 0x555e4c625c60] 8x8 transform intra:17.5% inter:75.3%
[libx264 @ 0x555e4c625c60] coded y,uvDC,uvAC intra: 17.0% 38.3% 12.2% inter: 3.3% 4.1% 0.0%
[libx264 @ 0x555e4c625c60] i16 v,h,dc,p: 13% 71% 10%  6%
[libx264 @ 0x555e4c625c60] i8 v,h,dc,ddl,ddr,vr,hd,vl,hu:  4% 36% 38%  3%  2%  1%  4%  2% 10%
[libx264 @ 0x555e4c625c60] i4 v,h,dc,ddl,ddr,vr,hd,vl,hu:  7% 59% 19%  2%  1%  0%  2%  1%  8%
[libx264 @ 0x555e4c625c60] i8c dc,h,v,p: 35% 58%  5%  2%
[libx264 @ 0x555e4c625c60] Weighted P-Frames: Y:2.6% UV:0.0%
[libx264 @ 0x555e4c625c60] ref P L0: 59.4%  8.5% 24.8%  7.1%  0.1%
[libx264 @ 0x555e4c625c60] ref B L0: 74.2% 20.4%  5.4%
[libx264 @ 0x555e4c625c60] ref B L1: 85.8% 14.2%
[libx264 @ 0x555e4c625c60] PSNR Mean Y:46.055 U:49.819 V:48.380 Avg:46.838 Global:46.800 kb/s:99.38
